<svg width="363" height="385" viewBox="0 0 363 385" fill="none" xmlns="http://www.w3.org/2000/svg">
<path d="M187.793 1.61726L145.464 25.5421C143.365 26.7289 142.18 29.0574 142.456 31.4533L147.991 79.4236C148.214 81.3539 149.358 83.0568 151.06 83.9932L187.763 104.18C189.563 105.17 191.745 105.17 193.546 104.18L230.434 83.8912C232.032 83.0123 233.143 81.4542 233.454 79.6571L241.74 31.7852C242.182 29.2289 240.932 26.6778 238.64 25.4619L193.557 1.54054C191.749 0.580796 189.575 0.609718 187.793 1.61726Z" fill="#BEF264"/>
<path d="M187.793 1.61726L145.464 25.5421C143.365 26.7289 142.18 29.0574 142.456 31.4533L147.991 79.4236C148.214 81.3539 149.358 83.0568 151.06 83.9932L187.763 104.18C189.563 105.17 191.745 105.17 193.546 104.18L230.434 83.8912C232.032 83.0123 233.143 81.4542 233.454 79.6571L241.74 31.7852C242.182 29.2289 240.932 26.6778 238.64 25.4619L193.557 1.54054C191.749 0.580796 189.575 0.609718 187.793 1.61726Z" fill="#BEF264"/>
<path d="M187.793 1.61726L145.464 25.5421C143.365 26.7289 142.18 29.0574 142.456 31.4533L147.991 79.4236C148.214 81.3539 149.358 83.0568 151.06 83.9932L187.763 104.18C189.563 105.17 191.745 105.17 193.546 104.18L230.434 83.8912C232.032 83.0123 233.143 81.4542 233.454 79.6571L241.74 31.7852C242.182 29.2289 240.932 26.6778 238.64 25.4619L193.557 1.54054C191.749 0.580796 189.575 0.609718 187.793 1.61726Z" fill="#BEF264"/>
<path d="M187.793 1.61726L145.464 25.5421C143.365 26.7289 142.18 29.0574 142.456 31.4533L147.991 79.4236C148.214 81.3539 149.358 83.0568 151.06 83.9932L187.763 104.18C189.563 105.17 191.745 105.17 193.546 104.18L230.434 83.8912C232.032 83.0123 233.143 81.4542 233.454 79.6571L241.74 31.7852C242.182 29.2289 240.932 26.6778 238.64 25.4619L193.557 1.54054C191.749 0.580796 189.575 0.609718 187.793 1.61726Z" fill="#A5F024"/>
<path d="M196.689 383.153L239.017 359.228C241.117 358.041 242.302 355.713 242.025 353.317L236.49 305.346C236.268 303.416 235.124 301.713 233.421 300.777L196.719 280.59C194.918 279.6 192.736 279.6 190.936 280.59L154.048 300.879C152.45 301.758 151.338 303.316 151.027 305.113L142.742 352.985C142.299 355.541 143.55 358.092 145.841 359.308L190.924 383.229C192.733 384.189 194.906 384.16 196.689 383.153Z" fill="#BEF264"/>
<path d="M196.689 383.153L239.017 359.228C241.117 358.041 242.302 355.713 242.025 353.317L236.49 305.346C236.268 303.416 235.124 301.713 233.421 300.777L196.719 280.59C194.918 279.6 192.736 279.6 190.936 280.59L154.048 300.879C152.45 301.758 151.338 303.316 151.027 305.113L142.742 352.985C142.299 355.541 143.55 358.092 145.841 359.308L190.924 383.229C192.733 384.189 194.906 384.16 196.689 383.153Z" fill="#BEF264"/>
<path d="M196.689 383.153L239.017 359.228C241.117 358.041 242.302 355.713 242.025 353.317L236.49 305.346C236.268 303.416 235.124 301.713 233.421 300.777L196.719 280.59C194.918 279.6 192.736 279.6 190.936 280.59L154.048 300.879C152.45 301.758 151.338 303.316 151.027 305.113L142.742 352.985C142.299 355.541 143.55 358.092 145.841 359.308L190.924 383.229C192.733 384.189 194.906 384.16 196.689 383.153Z" fill="#BEF264"/>
<path d="M196.689 383.153L239.017 359.228C241.117 358.041 242.302 355.713 242.025 353.317L236.49 305.346C236.268 303.416 235.124 301.713 233.421 300.777L196.719 280.59C194.918 279.6 192.736 279.6 190.936 280.59L154.048 300.879C152.45 301.758 151.338 303.316 151.027 305.113L142.742 352.985C142.299 355.541 143.55 358.092 145.841 359.308L190.924 383.229C192.733 384.189 194.906 384.16 196.689 383.153Z" fill="#A5F024"/>
<path d="M0.104736 101.461L0.104736 290.91C0.104736 292.879 1.07069 294.752 2.68948 295.873L51.4646 329.64C53.6288 331.139 56.5169 331.051 58.5868 329.425L97.2354 299.058C98.6831 297.921 99.5285 296.182 99.5285 294.34V195.64C99.5285 190.779 105.005 187.936 108.981 190.733L306.518 329.704C308.609 331.174 311.402 331.159 313.476 329.665L360.401 295.879C361.967 294.752 362.896 292.94 362.896 291.01V272.825C362.896 270.898 361.97 269.088 360.407 267.96L66.0376 55.4752C63.9329 53.9559 61.0898 53.9624 58.992 55.4913L2.57082 96.6118C1.02121 97.7412 0.104736 99.5432 0.104736 101.461Z" fill="white"/>
<path d="M264.53 85.4929V181.037C264.53 182.951 265.443 184.751 266.988 185.88L353.354 249.03C357.318 251.928 362.896 249.097 362.896 244.186V100.458C362.896 98.5097 361.95 96.6828 360.359 95.5583L305.168 56.5441C303.017 55.0235 300.126 55.0838 298.04 56.6928L266.865 80.7422C265.392 81.8783 264.53 83.633 264.53 85.4929Z" fill="white"/>
</svg>
