<svg width="100" height="100" viewBox="0 0 100 100" fill="none" xmlns="http://www.w3.org/2000/svg">
<path d="M10.9297 4C10.6519 3.99999 10.3771 4.05785 10.1229 4.1699C9.86871 4.28194 9.64063 4.44571 9.45321 4.65077C9.26579 4.85583 9.12314 5.09769 9.03435 5.36092C8.94557 5.62416 8.91258 5.903 8.93751 6.17969L15.9766 85.0312C16.0123 85.4338 16.1691 85.8162 16.4264 86.1279C16.6837 86.4396 17.0294 86.666 17.418 86.7773L49.4375 95.9219C49.7962 96.0242 50.1764 96.0242 50.5352 95.9219L82.586 86.7773C82.9745 86.666 83.3202 86.4396 83.5775 86.1279C83.8348 85.8162 83.9916 85.4338 84.0274 85.0312L91.0625 6.17969C91.0874 5.903 91.0545 5.62416 90.9657 5.36092C90.8769 5.09769 90.7342 4.85583 90.5468 4.65077C90.3594 4.44571 90.1313 4.28194 89.8771 4.1699C89.6229 4.05785 89.3481 3.99999 89.0703 4H10.9297ZM13.1172 8H86.8828L80.168 83.3086L49.9883 91.9219L19.8399 83.3086L13.1172 8ZM38 20C37.4696 20.0001 36.9609 20.2108 36.5859 20.5858C36.2108 20.9609 36.0001 21.4696 36 22V59.2578L24.5352 56.082C24.2382 55.9996 23.9262 55.9869 23.6235 56.045C23.3209 56.103 23.0357 56.2302 22.7903 56.4166C22.5449 56.603 22.3459 56.8436 22.2088 57.1196C22.0717 57.3957 22.0003 57.6996 22 58.0078V67.8984C22.0003 68.3354 22.1437 68.7602 22.4082 69.1079C22.6728 69.4557 23.0439 69.7073 23.4649 69.8242L45.4649 75.9258C45.7618 76.0082 46.0738 76.0209 46.3765 75.9629C46.6791 75.9048 46.9643 75.7776 47.2097 75.5912C47.4551 75.4048 47.6542 75.1642 47.7912 74.8882C47.9283 74.6122 47.9998 74.3082 48 74V22C48 21.4696 47.7892 20.9609 47.4142 20.5858C47.0391 20.2108 46.5304 20.0001 46 20H38ZM54 20C53.4696 20.0001 52.9609 20.2108 52.5859 20.5858C52.2108 20.9609 52.0001 21.4696 52 22V56C51.9998 56.2915 52.0633 56.5796 52.1861 56.844C52.3089 57.1085 52.488 57.3428 52.7109 57.5308C52.9338 57.7187 53.1951 57.8556 53.4765 57.9319C53.7579 58.0083 54.0525 58.0222 54.3399 57.9727L65.8359 55.9922L65.5977 59.5352L53.4688 62.8711C53.047 62.9873 52.6751 63.2386 52.4098 63.5864C52.1445 63.9342 52.0006 64.3594 52 64.7969V74C51.9998 74.3081 52.0708 74.612 52.2074 74.8882C52.344 75.1643 52.5426 75.4052 52.7876 75.592C53.0326 75.7787 53.3174 75.9064 53.6199 75.965C53.9223 76.0236 54.2342 76.0115 54.5313 75.9297L74.5313 70.4297C74.9252 70.321 75.2764 70.0943 75.5375 69.78C75.7987 69.4658 75.9574 69.079 75.9922 68.6719L78.1016 44.1719C78.1274 43.8721 78.0853 43.5703 77.9784 43.2891C77.8715 43.0078 77.7024 42.7543 77.4839 42.5474C77.2654 42.3406 77.003 42.1857 76.7164 42.0943C76.4297 42.0029 76.1261 41.9773 75.8281 42.0195L64 43.6953V32H77.3086C77.8092 31.9999 78.2915 31.812 78.6604 31.4735C79.0292 31.1351 79.2577 30.6706 79.3008 30.1719L79.9922 22.1719C80.016 21.8958 79.9822 21.6178 79.8928 21.3555C79.8035 21.0932 79.6607 20.8523 79.4734 20.6481C79.2861 20.4439 79.0584 20.2809 78.8048 20.1693C78.5511 20.0577 78.2771 20.0001 78 20H54ZM40 24H44V71.3711L26 66.3789V60.6367L37.4649 63.8164C37.7618 63.8988 38.0738 63.9115 38.3765 63.8535C38.6791 63.7954 38.9643 63.6683 39.2097 63.4818C39.4551 63.2954 39.6542 63.0548 39.7912 62.7788C39.9283 62.5028 39.9998 62.1988 40 61.8906V24ZM56 24H75.8203L75.4727 28H62C61.4696 28.0001 60.9609 28.2108 60.5859 28.5858C60.2108 28.9609 60.0001 29.4696 60 30V46C60 46.2864 60.0615 46.5695 60.1804 46.8301C60.2992 47.0907 60.4727 47.3228 60.6889 47.5105C60.9052 47.6983 61.1593 47.8374 61.434 47.9185C61.7088 47.9996 61.9977 48.0207 62.2813 47.9805L73.9024 46.332L72.125 66.9414L56 71.375V66.3242L68.0313 63.0156C68.4312 62.9056 68.787 62.6739 69.0495 62.3526C69.3119 62.0314 69.468 61.6365 69.4961 61.2227L69.9961 53.7227C70.0165 53.4205 69.9679 53.1177 69.8542 52.8371C69.7405 52.5564 69.5645 52.3052 69.3396 52.1025C69.1147 51.8997 68.8466 51.7507 68.5557 51.6667C68.2648 51.5826 67.9586 51.5657 67.6602 51.6172L56 53.625V24Z" fill="white"/>
</svg>
