<svg width="100" height="100" viewBox="0 0 100 100" fill="none" xmlns="http://www.w3.org/2000/svg">
<path d="M56.375 0C61.875 12.7266 36.6562 20.5859 34.3125 31.1875C32.1641 40.9297 49.2969 52.25 49.3125 52.25C46.7109 48.2188 44.7969 44.8984 42.1875 38.625C37.7734 28.0156 69.0703 18.4141 56.375 0ZM73.125 17.625C73.125 17.625 51 19.0469 49.875 33.1875C49.375 39.4844 55.6953 42.7969 55.875 47.375C56.0234 51.1172 52.125 54.25 52.125 54.25C52.125 54.25 59.2188 52.8984 61.4375 47.1875C63.8984 40.8516 56.6406 36.5703 57.375 31.5C58.0781 26.6484 73.125 17.625 73.125 17.625ZM38.375 50.3125C38.375 50.3125 18.125 50.0234 18.125 55.75C18.125 61.7344 44.6328 62.1797 63.5625 58.5C63.5625 58.5 68.5938 55.0391 69.9375 53.75C57.5312 56.2812 29.25 56.5625 29.25 54.375C29.25 52.3594 38.375 50.3125 38.375 50.3125ZM77.3125 50.3125C75.3281 50.4688 73.1875 51.2344 71.25 52.625C75.8125 51.6406 79.6875 54.4688 79.6875 57.6875C79.6875 64.9375 69.1875 71.75 69.1875 71.75C69.1875 71.75 85.4375 69.9062 85.4375 58C85.4375 52.5938 81.6797 49.9688 77.3125 50.3125ZM33.5 61.4375C30.3906 61.4375 25.75 63.875 25.75 66.1875C25.75 70.8359 49.125 74.4141 66.4375 67.625L60.4375 63.9375C48.7031 67.6953 27.0938 66.4688 33.5 61.4375ZM36.375 71.875C32.1172 71.875 29.3125 74.4453 29.3125 76.375C29.3125 82.3438 54.7422 82.9453 64.8125 76.875L58.4375 72.8125C50.9141 75.9922 32.0312 76.4766 36.375 71.875ZM22.1875 77.25C15.25 77.1094 10.75 80.2266 10.75 82.8125C10.75 96.5625 81.75 95.9297 81.75 81.875C81.75 79.5391 79.0547 78.4062 78.0625 77.875C83.8672 91.3125 19.9375 90.2422 19.9375 82.3125C19.9375 80.5078 24.6406 78.7812 29 79.625L25.3125 77.5C24.2266 77.3359 23.1797 77.2734 22.1875 77.25ZM89.25 86.5C78.4531 96.7344 51.0938 100.445 23.5625 94.125C51.0859 105.391 89.1172 99.0703 89.25 86.5Z" fill="white"/>
</svg>
