<svg width="17" height="17" viewBox="0 0 17 17" fill="none" xmlns="http://www.w3.org/2000/svg">
<path d="M8.18977 2.31341C8.22034 2.25789 8.26526 2.21158 8.31983 2.17933C8.3744 2.14708 8.43663 2.13007 8.50002 2.13007C8.56341 2.13007 8.62563 2.14708 8.6802 2.17933C8.73478 2.21158 8.77969 2.25789 8.81027 2.31341L10.9013 6.28291C10.9511 6.37483 11.0207 6.45456 11.1051 6.51639C11.1894 6.57822 11.2864 6.62061 11.389 6.64052C11.4917 6.66043 11.5975 6.65736 11.6988 6.63154C11.8001 6.60572 11.8945 6.55778 11.9751 6.49116L15.0046 3.89583C15.0628 3.84853 15.1345 3.8209 15.2093 3.81692C15.2842 3.81294 15.3584 3.83282 15.4212 3.87369C15.4841 3.91456 15.5323 3.97432 15.559 4.04436C15.5857 4.1144 15.5895 4.19111 15.5699 4.26346L13.5625 11.521C13.5215 11.6696 13.4332 11.8007 13.311 11.8945C13.1888 11.9883 13.0394 12.0397 12.8853 12.041H4.11543C3.96125 12.0399 3.81164 11.9885 3.68929 11.8947C3.56695 11.8009 3.47857 11.6697 3.43756 11.521L1.43085 4.26416C1.41119 4.19182 1.415 4.11511 1.44172 4.04507C1.46843 3.97503 1.51669 3.91527 1.57953 3.8744C1.64237 3.83353 1.71656 3.81365 1.79142 3.81763C1.86628 3.82161 1.93794 3.84924 1.9961 3.89654L5.02493 6.49187C5.10554 6.55849 5.1999 6.60642 5.30123 6.63225C5.40256 6.65807 5.50835 6.66114 5.61101 6.64123C5.71366 6.62132 5.81064 6.57893 5.89497 6.5171C5.9793 6.45527 6.0489 6.37554 6.09877 6.28362L8.18977 2.31341Z" fill="#FFB906" stroke="#FFB906" stroke-linecap="round" stroke-linejoin="round"/>
<path d="M3.54163 14.875H13.4583" stroke="#FFB906" stroke-linecap="round" stroke-linejoin="round"/>
</svg>
