<svg width="101" height="100" viewBox="0 0 101 100" fill="none" xmlns="http://www.w3.org/2000/svg">
<g clip-path="url(#clip0_26_1136)">
<path d="M56.625 0C62.125 12.7266 36.9062 20.5859 34.5625 31.1875C32.4141 40.9297 49.5469 52.25 49.5625 52.25C46.9609 48.2188 45.0469 44.8984 42.4375 38.625C38.0234 28.0156 69.3203 18.4141 56.625 0ZM73.375 17.625C73.375 17.625 51.25 19.0469 50.125 33.1875C49.625 39.4844 55.9453 42.7969 56.125 47.375C56.2734 51.1172 52.375 54.25 52.375 54.25C52.375 54.25 59.4688 52.8984 61.6875 47.1875C64.1484 40.8516 56.8906 36.5703 57.625 31.5C58.3281 26.6484 73.375 17.625 73.375 17.625ZM38.625 50.3125C38.625 50.3125 18.375 50.0234 18.375 55.75C18.375 61.7344 44.8828 62.1797 63.8125 58.5C63.8125 58.5 68.8438 55.0391 70.1875 53.75C57.7812 56.2812 29.5 56.5625 29.5 54.375C29.5 52.3594 38.625 50.3125 38.625 50.3125ZM77.5625 50.3125C75.5781 50.4688 73.4375 51.2344 71.5 52.625C76.0625 51.6406 79.9375 54.4688 79.9375 57.6875C79.9375 64.9375 69.4375 71.75 69.4375 71.75C69.4375 71.75 85.6875 69.9062 85.6875 58C85.6875 52.5938 81.9297 49.9688 77.5625 50.3125ZM33.75 61.4375C30.6406 61.4375 26 63.875 26 66.1875C26 70.8359 49.375 74.4141 66.6875 67.625L60.6875 63.9375C48.9531 67.6953 27.3438 66.4688 33.75 61.4375ZM36.625 71.875C32.3672 71.875 29.5625 74.4453 29.5625 76.375C29.5625 82.3438 54.9922 82.9453 65.0625 76.875L58.6875 72.8125C51.1641 75.9922 32.2812 76.4766 36.625 71.875ZM22.4375 77.25C15.5 77.1094 11 80.2266 11 82.8125C11 96.5625 82 95.9297 82 81.875C82 79.5391 79.3047 78.4062 78.3125 77.875C84.1172 91.3125 20.1875 90.2422 20.1875 82.3125C20.1875 80.5078 24.8906 78.7812 29.25 79.625L25.5625 77.5C24.4766 77.3359 23.4297 77.2734 22.4375 77.25ZM89.5 86.5C78.7031 96.7344 51.3438 100.445 23.8125 94.125C51.3359 105.391 89.3672 99.0703 89.5 86.5Z" fill="white"/>
</g>
<defs>
<clipPath id="clip0_26_1136">
<rect width="100.5" height="99.9837" fill="white"/>
</clipPath>
</defs>
</svg>
