<svg width="100" height="100" viewBox="0 0 100 100" fill="none" xmlns="http://www.w3.org/2000/svg">
<g clip-path="url(#clip0_26_1144)">
<path d="M40 16.6667H46.6667M30 26.6667V10C30 6.31814 32.9848 3.33337 36.6667 3.33337H63.3334C67.0154 3.33337 70 6.31814 70 10V43.3334C70 47.0152 67.0154 50 63.3334 50H36.6667C32.9848 50 30 52.9848 30 56.6667V90C30 93.682 32.9848 96.6667 36.6667 96.6667H63.3334C67.0154 96.6667 70 93.682 70 90V73.3334M53.3334 30H10C6.31814 30 3.33337 32.9848 3.33337 36.6667V70C3.33337 73.682 6.31814 76.6667 10 76.6667H30M46.6667 70H90C93.682 70 96.6667 67.0154 96.6667 63.3334V30C96.6667 26.3182 93.682 23.3334 90 23.3334H70M53.3334 83.3334H60" stroke="white" stroke-width="5"/>
</g>
<defs>
<clipPath id="clip0_26_1144">
<rect width="100" height="100" fill="white"/>
</clipPath>
</defs>
</svg>
