<svg width="100" height="104" viewBox="0 0 100 104" fill="none" xmlns="http://www.w3.org/2000/svg">
<path d="M58.3715 51.9217C58.3715 47.2599 54.6237 43.4801 50 43.4801C45.3769 43.4801 41.6284 47.2599 41.6284 51.9217C41.6284 56.5841 45.3769 60.3635 50 60.3635C54.6237 60.3635 58.3715 56.5841 58.3715 51.9217Z" fill="white"/>
<path fill-rule="evenodd" clip-rule="evenodd" d="M77.1888 36.2495C78.9566 29.0055 81.1787 15.5723 73.345 11.018C65.5478 6.48358 55.4013 15.1724 50.0434 20.3878C44.7013 15.2244 34.2697 6.5727 26.4426 11.1415C18.6485 15.6911 21.052 28.9016 22.8591 36.191C15.5885 38.2733 3.125 42.7583 3.125 51.9217C3.125 61.059 15.5755 65.9386 22.8031 68.0189C20.9893 75.3486 18.7061 88.3704 26.5102 92.91C34.3666 97.4779 44.7656 89.0321 50.1731 83.7596C55.5653 89.0058 65.6144 97.5068 73.4131 92.9545C81.2363 88.388 79.1988 75.1348 77.3916 67.8031C84.3978 65.7182 96.875 60.945 96.875 51.9217C96.875 42.8464 84.3447 38.325 77.1888 36.2495ZM76.3006 63.9177C75.1141 60.1302 73.5125 56.1025 71.5534 51.9418C73.4234 47.8793 74.9628 43.9036 76.1162 40.1404C81.3622 41.6741 92.8703 45.1792 92.8703 51.9217C92.8703 58.7275 81.8269 62.2658 76.3006 63.9177ZM71.4062 89.4595C65.5875 92.8557 56.9441 84.7262 52.9619 80.8629C55.6037 77.9493 58.2437 74.5621 60.8203 70.8009C65.3528 70.3956 69.6344 69.7326 73.5175 68.8275C74.7894 74.0135 77.2506 86.048 71.4062 89.4595ZM28.5113 89.4111C22.692 86.0275 25.3518 74.4074 26.6862 69.0082C30.5261 69.8649 34.7769 70.4811 39.32 70.8526C41.9134 74.5329 44.63 77.9158 47.3675 80.8785C43.9853 84.1776 34.3578 92.8102 28.5113 89.4111ZM7.12966 51.9217C7.12966 45.0905 18.569 41.6107 23.9345 40.0809C25.1078 43.9286 26.6467 47.9518 28.5038 52.0201C26.6227 56.1489 25.0618 60.2358 23.8777 64.129C18.7615 62.6522 7.12966 58.7571 7.12966 51.9217ZM28.4491 14.6365C34.2922 11.226 43.3584 19.5319 47.2372 23.2704C44.5137 26.2195 41.8222 29.5769 39.2509 33.2361C34.8419 33.6482 30.6211 34.3099 26.7409 35.1965C25.2852 29.3173 22.6122 18.0433 28.4491 14.6365ZM63.6853 37.6256C66.6766 38.0061 69.5425 38.5125 72.2334 39.1319C71.4256 41.743 70.4187 44.4733 69.2328 47.2722C67.5137 43.9832 65.6684 40.7602 63.6853 37.6256ZM50.0447 26.1563C51.8919 28.1741 53.7419 30.4275 55.5619 32.8721C51.8703 32.696 48.1728 32.6953 44.4813 32.8695C46.3028 30.4476 48.1687 28.1976 50.0447 26.1563ZM30.8016 47.2693C29.6353 44.4801 28.6374 41.7378 27.8226 39.0894C30.4974 38.4858 33.35 37.9925 36.3219 37.6181C34.3331 40.7459 32.4909 43.9676 30.8016 47.2693ZM36.4072 66.5135C33.3372 66.168 30.4414 65.6997 27.7674 65.1128C28.5951 62.4179 29.6149 59.6164 30.8061 56.7671C32.5187 60.1032 34.3891 63.3561 36.4072 66.5135ZM50.1556 77.9724C48.2575 75.907 46.3641 73.6226 44.515 71.1656C48.2275 71.3125 51.9472 71.3128 55.6594 71.1457C53.8338 73.6476 51.9903 75.9353 50.1556 77.9724ZM69.2709 56.6221C70.5241 59.5023 71.5803 62.2885 72.4194 64.9379C69.7009 65.5635 66.7663 66.0673 63.6741 66.4414C65.6719 63.2473 67.5466 59.9742 69.2709 56.6221ZM58.5853 66.9308C52.9066 67.34 47.1925 67.3354 41.5119 66.9643C38.2841 62.2099 35.4106 57.2097 32.9303 52.0188C35.3988 46.8387 38.2513 41.8483 41.4637 37.1013C47.1484 36.6681 52.8681 36.6668 58.5528 37.1039C61.7378 41.8506 64.5859 46.8279 67.1116 51.9613C64.6159 57.1389 61.7484 62.1393 58.5853 66.9308ZM71.3447 14.5164C77.1894 17.9158 74.5878 29.9886 73.3109 35.2384C69.4216 34.3333 65.1978 33.6599 60.7759 33.2413C58.1997 29.5426 55.5306 26.1793 52.8512 23.2683C56.7797 19.4493 65.5566 11.1504 71.3447 14.5164Z" fill="white"/>
</svg>
