<svg width="32" height="32" viewBox="0 0 32 32" fill="none" xmlns="http://www.w3.org/2000/svg">
<path d="M13.3334 10.3333C13.3337 10.1557 13.3813 9.9814 13.4714 9.8283C13.5614 9.67519 13.6906 9.54883 13.8457 9.4622C14.0007 9.37558 14.176 9.33181 14.3536 9.33541C14.5312 9.33901 14.7046 9.38984 14.856 9.48267L19.7414 12.4813C19.887 12.5708 20.0072 12.6961 20.0906 12.8452C20.174 12.9944 20.2178 13.1624 20.2178 13.3333C20.2178 13.5042 20.174 13.6723 20.0906 13.8214C20.0072 13.9706 19.887 14.0959 19.7414 14.1853L14.856 17.1853C14.7044 17.2783 14.5308 17.3291 14.353 17.3326C14.1751 17.3361 13.9996 17.2921 13.8445 17.2051C13.6894 17.1182 13.5602 16.9915 13.4704 16.838C13.3805 16.6845 13.3332 16.5098 13.3334 16.332V10.3333Z" stroke="#BEF264" stroke-width="2" stroke-linecap="round" stroke-linejoin="round"/>
<path d="M9.33337 28H22.6667" stroke="#BEF264" stroke-width="2" stroke-linecap="round" stroke-linejoin="round"/>
<path d="M26.6666 4H5.33329C3.86053 4 2.66663 5.19391 2.66663 6.66667V20C2.66663 21.4728 3.86053 22.6667 5.33329 22.6667H26.6666C28.1394 22.6667 29.3333 21.4728 29.3333 20V6.66667C29.3333 5.19391 28.1394 4 26.6666 4Z" stroke="#BEF264" stroke-width="2" stroke-linecap="round" stroke-linejoin="round"/>
</svg>
