<svg width="273" height="273" viewBox="0 0 273 273" fill="none" xmlns="http://www.w3.org/2000/svg">
<path d="M204.75 227.5C204.75 209.399 197.559 192.039 184.76 179.24C171.961 166.441 154.601 159.25 136.5 159.25C118.399 159.25 101.039 166.441 88.24 179.24C75.4406 192.039 68.25 209.399 68.25 227.5" stroke="#797979" stroke-width="6" stroke-linecap="round" stroke-linejoin="round"/>
<path d="M136.5 159.25C161.629 159.25 182 138.879 182 113.75C182 88.621 161.629 68.25 136.5 68.25C111.371 68.25 91 88.621 91 113.75C91 138.879 111.371 159.25 136.5 159.25Z" stroke="#797979" stroke-width="6" stroke-linecap="round" stroke-linejoin="round"/>
<path d="M136.5 250.25C199.322 250.25 250.25 199.322 250.25 136.5C250.25 73.6776 199.322 22.75 136.5 22.75C73.6776 22.75 22.75 73.6776 22.75 136.5C22.75 199.322 73.6776 250.25 136.5 250.25Z" stroke="#797979" stroke-width="6" stroke-linecap="round" stroke-linejoin="round"/>
</svg>
