<svg width="39" height="39" viewBox="0 0 39 39" fill="none" xmlns="http://www.w3.org/2000/svg">
<circle cx="19.5" cy="19.5" r="19" stroke="white" stroke-opacity="0.43"/>
<path d="M23 30V26C23.1392 24.7473 22.78 23.4901 22 22.5C25 22.5 28 20.5 28 17C28.08 15.75 27.73 14.52 27 13.5C27.28 12.35 27.28 11.15 27 10C27 10 26 10 24 11.5C21.36 11 18.64 11 16 11.5C14 10 13 10 13 10C12.7 11.15 12.7 12.35 13 13.5C12.2719 14.5159 11.9185 15.7528 12 17C12 20.5 15 22.5 18 22.5C17.61 22.99 17.32 23.55 17.15 24.15C16.98 24.75 16.93 25.38 17 26V30" stroke="white" stroke-width="2" stroke-linecap="round" stroke-linejoin="round"/>
<path d="M17 26C12.49 28 12 24 10 24" stroke="white" stroke-width="2" stroke-linecap="round" stroke-linejoin="round"/>
</svg>
