<svg width="39" height="39" viewBox="0 0 39 39" fill="none" xmlns="http://www.w3.org/2000/svg">
<path d="M24.2395 10.0208H14.7603C12.1427 10.0208 10.0208 12.1427 10.0208 14.7603V24.2395C10.0208 26.8571 12.1427 28.9791 14.7603 28.9791H24.2395C26.8571 28.9791 28.9791 26.8571 28.9791 24.2395V14.7603C28.9791 12.1427 26.8571 10.0208 24.2395 10.0208Z" stroke="white" stroke-width="2" stroke-linecap="round" stroke-linejoin="round"/>
<path d="M23.2916 18.9027C23.4086 19.6916 23.2738 20.4973 22.9065 21.2052C22.5392 21.9131 21.958 22.4872 21.2456 22.8458C20.5333 23.2043 19.726 23.3291 18.9386 23.2024C18.1512 23.0757 17.4238 22.704 16.8598 22.14C16.2959 21.5761 15.9241 20.8487 15.7974 20.0613C15.6707 19.2739 15.7955 18.4666 16.1541 17.7542C16.5126 17.0418 17.0867 16.4607 17.7946 16.0933C18.5025 15.726 19.3082 15.5913 20.0971 15.7083C20.9018 15.8276 21.6468 16.2026 22.2221 16.7778C22.7973 17.353 23.1723 18.098 23.2916 18.9027Z" stroke="white" stroke-width="2" stroke-linecap="round" stroke-linejoin="round"/>
<path d="M24.7136 14.2864H24.7237" stroke="white" stroke-width="2" stroke-linecap="round" stroke-linejoin="round"/>
<circle cx="19.5" cy="19.5" r="19" stroke="white" stroke-opacity="0.43"/>
</svg>
